<?xml version="1.0" encoding="UTF-8" standalone="no"?>
<!-- Generator: Adobe Illustrator 16.0.0, SVG Export Plug-In . SVG Version: 6.00 Build 0)  -->

<svg
		xmlns:dc="http://purl.org/dc/elements/1.1/"
		xmlns:cc="http://creativecommons.org/ns#"
		xmlns:rdf="http://www.w3.org/1999/02/22-rdf-syntax-ns#"
		xmlns="http://www.w3.org/2000/svg"
		xmlns:sodipodi="http://sodipodi.sourceforge.net/DTD/sodipodi-0.dtd"
		xmlns:inkscape="http://www.inkscape.org/namespaces/inkscape"
		version="1.1"
		id="Layer_1"
		x="0px"
		y="0px"
		width="40"
		height="40"
		viewBox="0 0 40 40"
		enable-background="new 0 0 512 512"
		xml:space="preserve"
		sodipodi:docname="pluginIcon.svg"
		inkscape:version="0.92.4 (5da689c313, 2019-01-14)"><metadata
   id="metadata144"><rdf:RDF><cc:Work
       rdf:about=""><dc:format>image/svg+xml</dc:format><dc:type
		rdf:resource="http://purl.org/dc/dcmitype/StillImage"/><dc:title></dc:title></cc:Work></rdf:RDF></metadata>
	<defs
			id="defs142">
	
	
	
	
	
	
	
	
	
	
	
	
</defs>
	<sodipodi:namedview
			pagecolor="#ffffff"
			bordercolor="#666666"
			borderopacity="1"
			objecttolerance="10"
			gridtolerance="10"
			guidetolerance="10"
			inkscape:pageopacity="0"
			inkscape:pageshadow="2"
			inkscape:window-width="2560"
			inkscape:window-height="1377"
			id="namedview140"
			showgrid="false"
			fit-margin-top="0"
			fit-margin-left="0"
			fit-margin-right="0"
			fit-margin-bottom="0"
			inkscape:zoom="18.90625"
			inkscape:cx="25.379793"
			inkscape:cy="28.262804"
			inkscape:window-x="-8"
			inkscape:window-y="-8"
			inkscape:window-maximized="1"
			inkscape:current-layer="Layer_1"/>
	<g
			id="g104"
			transform="matrix(0.07812424,0,0,0.07812424,1.9456e-4,1.9456e-4)">
		<path
				style="fill:#ffce54"
				inkscape:connector-curvature="0"
				id="path10"
				d="m 512,42.66 c 0,5.891 -4.781,10.672 -10.656,10.672 -5.906,0 -10.688,-4.781 -10.688,-10.672 0,-5.891 4.781,-10.664 10.688,-10.664 5.875,0 10.656,4.774 10.656,10.664 z"/>
		<path
				style="fill:#ffce54"
				inkscape:connector-curvature="0"
				id="path12"
				d="m 512,85.332 c 0,5.891 -4.781,10.664 -10.656,10.664 -5.906,0 -10.688,-4.773 -10.688,-10.664 0,-5.891 4.781,-10.672 10.688,-10.672 5.875,0 10.656,4.781 10.656,10.672 z"/>
		<path
				style="fill:#ffce54"
				inkscape:connector-curvature="0"
				id="path14"
				d="m 512,127.996 c 0,5.891 -4.781,10.664 -10.656,10.664 -5.906,0 -10.688,-4.773 -10.688,-10.664 0,-5.891 4.781,-10.664 10.688,-10.664 5.875,0 10.656,4.773 10.656,10.664 z"/>
		<path
				style="fill:#ffce54"
				inkscape:connector-curvature="0"
				id="path16"
				d="m 512,170.66 c 0,5.891 -4.781,10.672 -10.656,10.672 -5.906,0 -10.688,-4.781 -10.688,-10.672 0,-5.891 4.781,-10.664 10.688,-10.664 5.875,0 10.656,4.774 10.656,10.664 z"/>
		<path
				style="fill:#ffce54"
				inkscape:connector-curvature="0"
				id="path18"
				d="m 512,213.332 c 0,5.891 -4.781,10.664 -10.656,10.664 -5.906,0 -10.688,-4.773 -10.688,-10.664 0,-5.891 4.781,-10.672 10.688,-10.672 5.875,0 10.656,4.781 10.656,10.672 z"/>
		<path
				style="fill:#ffce54"
				inkscape:connector-curvature="0"
				id="path20"
				d="m 512,255.996 c 0,5.891 -4.781,10.664 -10.656,10.664 -5.906,0 -10.688,-4.773 -10.688,-10.664 0,-5.891 4.781,-10.664 10.688,-10.664 5.875,0 10.656,4.773 10.656,10.664 z"/>
		<path
				style="fill:#ffce54"
				inkscape:connector-curvature="0"
				id="path22"
				d="m 512,298.652 c 0,5.906 -4.781,10.688 -10.656,10.688 -5.906,0 -10.688,-4.781 -10.688,-10.688 0,-5.875 4.781,-10.656 10.688,-10.656 5.875,0 10.656,4.781 10.656,10.656 z"/>
		<path
				style="fill:#ffce54"
				inkscape:connector-curvature="0"
				id="path24"
				d="m 512,341.34 c 0,5.875 -4.781,10.656 -10.656,10.656 -5.906,0 -10.688,-4.781 -10.688,-10.656 0,-5.906 4.781,-10.688 10.688,-10.688 5.875,0 10.656,4.782 10.656,10.688 z"/>
		<path
				style="fill:#ffce54"
				inkscape:connector-curvature="0"
				id="path26"
				d="m 512,383.996 c 0,5.891 -4.781,10.656 -10.656,10.656 -5.906,0 -10.688,-4.766 -10.688,-10.656 0,-5.89 4.781,-10.656 10.688,-10.656 5.875,0 10.656,4.765 10.656,10.656 z"/>
		<path
				style="fill:#ffce54"
				inkscape:connector-curvature="0"
				id="path28"
				d="m 512,426.652 c 0,5.906 -4.781,10.688 -10.656,10.688 -5.906,0 -10.688,-4.781 -10.688,-10.688 0,-5.875 4.781,-10.656 10.688,-10.656 5.875,0 10.656,4.781 10.656,10.656 z"/>
		<path
				style="fill:#ffce54"
				inkscape:connector-curvature="0"
				id="path30"
				d="m 512,469.34 c 0,5.875 -4.781,10.656 -10.656,10.656 -5.906,0 -10.688,-4.781 -10.688,-10.656 0,-5.906 4.781,-10.688 10.688,-10.688 5.875,0 10.656,4.782 10.656,10.688 z"/>
		<g
				id="g54">
			<path
					style="fill:#ffce54"
					inkscape:connector-curvature="0"
					id="path32"
					d="m 469.344,501.34 c -5.906,0 -10.688,-4.781 -10.688,-10.688 0,-5.875 4.781,-10.656 10.688,-10.656 5.875,0 10.656,4.781 10.656,10.656 0,5.907 -4.781,10.688 -10.656,10.688 z"/>
			<path
					style="fill:#ffce54"
					inkscape:connector-curvature="0"
					id="path34"
					d="m 426.656,501.34 c -5.875,0 -10.656,-4.781 -10.656,-10.688 0,-5.875 4.781,-10.656 10.656,-10.656 5.906,0 10.688,4.781 10.688,10.656 0,5.907 -4.782,10.688 -10.688,10.688 z"/>
			<path
					style="fill:#ffce54"
					inkscape:connector-curvature="0"
					id="path36"
					d="m 384,501.34 c -5.891,0 -10.656,-4.781 -10.656,-10.688 0,-5.875 4.766,-10.656 10.656,-10.656 5.89,0 10.656,4.781 10.656,10.656 0,5.907 -4.765,10.688 -10.656,10.688 z"/>
			<path
					style="fill:#ffce54"
					inkscape:connector-curvature="0"
					id="path38"
					d="m 341.344,501.34 c -5.906,0 -10.688,-4.781 -10.688,-10.688 0,-5.875 4.781,-10.656 10.688,-10.656 5.875,0 10.656,4.781 10.656,10.656 0,5.907 -4.781,10.688 -10.656,10.688 z"/>
			<path
					style="fill:#ffce54"
					inkscape:connector-curvature="0"
					id="path40"
					d="m 298.656,501.34 c -5.875,0 -10.656,-4.781 -10.656,-10.688 0,-5.875 4.781,-10.656 10.656,-10.656 5.906,0 10.688,4.781 10.688,10.656 0,5.907 -4.782,10.688 -10.688,10.688 z"/>
			<path
					style="fill:#ffce54"
					inkscape:connector-curvature="0"
					id="path42"
					d="m 256,501.34 c -5.891,0 -10.664,-4.781 -10.664,-10.688 0,-5.875 4.773,-10.656 10.664,-10.656 5.891,0 10.664,4.781 10.664,10.656 0,5.907 -4.773,10.688 -10.664,10.688 z"/>
			<path
					style="fill:#ffce54"
					inkscape:connector-curvature="0"
					id="path44"
					d="m 213.336,501.34 c -5.891,0 -10.672,-4.781 -10.672,-10.688 0,-5.875 4.781,-10.656 10.672,-10.656 5.891,0 10.664,4.781 10.664,10.656 0,5.907 -4.773,10.688 -10.664,10.688 z"/>
			<path
					style="fill:#ffce54"
					inkscape:connector-curvature="0"
					id="path46"
					d="m 170.664,501.34 c -5.891,0 -10.664,-4.781 -10.664,-10.688 0,-5.875 4.773,-10.656 10.664,-10.656 5.891,0 10.672,4.781 10.672,10.656 0,5.907 -4.781,10.688 -10.672,10.688 z"/>
			<path
					style="fill:#ffce54"
					inkscape:connector-curvature="0"
					id="path48"
					d="m 128,501.34 c -5.891,0 -10.664,-4.781 -10.664,-10.688 0,-5.875 4.773,-10.656 10.664,-10.656 5.891,0 10.664,4.781 10.664,10.656 0,5.907 -4.773,10.688 -10.664,10.688 z"/>
			<path
					style="fill:#ffce54"
					inkscape:connector-curvature="0"
					id="path50"
					d="m 85.336,501.34 c -5.891,0 -10.672,-4.781 -10.672,-10.688 0,-5.875 4.781,-10.656 10.672,-10.656 5.891,0 10.664,4.781 10.664,10.656 0,5.907 -4.773,10.688 -10.664,10.688 z"/>
			<path
					style="fill:#ffce54"
					inkscape:connector-curvature="0"
					id="path52"
					d="M 42.664,501.34 C 36.773,501.34 32,496.559 32,490.652 c 0,-5.875 4.773,-10.656 10.664,-10.656 5.891,0 10.672,4.781 10.672,10.656 0,5.907 -4.781,10.688 -10.672,10.688 z"/>
		</g>
		<g
				id="g78">
			<path
					style="fill:#ffce54"
					inkscape:connector-curvature="0"
					id="path56"
					d="m 469.344,31.996 c -5.891,0 -10.656,-4.773 -10.656,-10.664 0,-5.891 4.766,-10.672 10.656,-10.672 5.89,0 10.672,4.781 10.672,10.672 0,5.891 -4.782,10.664 -10.672,10.664 z"/>
			<path
					style="fill:#ffce54"
					inkscape:connector-curvature="0"
					id="path58"
					d="M 426.688,31.996 C 420.782,31.996 416,27.223 416,21.332 c 0,-5.891 4.781,-10.672 10.688,-10.672 5.875,0 10.656,4.781 10.656,10.672 0,5.891 -4.782,10.664 -10.656,10.664 z"/>
			<path
					style="fill:#ffce54"
					inkscape:connector-curvature="0"
					id="path60"
					d="m 384,31.996 c -5.875,0 -10.656,-4.773 -10.656,-10.664 0,-5.891 4.781,-10.672 10.656,-10.672 5.906,0 10.688,4.781 10.688,10.672 0,5.891 -4.782,10.664 -10.688,10.664 z"/>
			<path
					style="fill:#ffce54"
					inkscape:connector-curvature="0"
					id="path62"
					d="m 341.344,31.996 c -5.891,0 -10.656,-4.773 -10.656,-10.664 0,-5.891 4.766,-10.672 10.656,-10.672 5.89,0 10.656,4.781 10.656,10.672 0,5.891 -4.766,10.664 -10.656,10.664 z"/>
			<path
					style="fill:#ffce54"
					inkscape:connector-curvature="0"
					id="path64"
					d="m 298.688,31.996 c -5.906,0 -10.672,-4.773 -10.672,-10.664 0,-5.891 4.766,-10.672 10.672,-10.672 5.875,0 10.656,4.781 10.656,10.672 0,5.891 -4.782,10.664 -10.656,10.664 z"/>
			<path
					style="fill:#ffce54"
					inkscape:connector-curvature="0"
					id="path66"
					d="m 256.016,31.996 c -5.891,0 -10.672,-4.773 -10.672,-10.664 0,-5.891 4.781,-10.672 10.672,-10.672 5.891,0 10.664,4.781 10.664,10.672 0,5.891 -4.774,10.664 -10.664,10.664 z"/>
			<path
					style="fill:#ffce54"
					inkscape:connector-curvature="0"
					id="path68"
					d="m 213.344,31.996 c -5.891,0 -10.664,-4.773 -10.664,-10.664 0,-5.891 4.773,-10.672 10.664,-10.672 5.891,0 10.672,4.781 10.672,10.672 0,5.891 -4.782,10.664 -10.672,10.664 z"/>
			<path
					style="fill:#ffce54"
					inkscape:connector-curvature="0"
					id="path70"
					d="m 170.68,31.996 c -5.891,0 -10.672,-4.773 -10.672,-10.664 0,-5.891 4.781,-10.672 10.672,-10.672 5.891,0 10.664,4.781 10.664,10.672 0,5.891 -4.774,10.664 -10.664,10.664 z"/>
			<path
					style="fill:#ffce54"
					inkscape:connector-curvature="0"
					id="path72"
					d="m 128.008,31.996 c -5.891,0 -10.664,-4.773 -10.664,-10.664 0,-5.891 4.773,-10.672 10.664,-10.672 5.891,0 10.672,4.781 10.672,10.672 0,5.891 -4.782,10.664 -10.672,10.664 z"/>
			<path
					style="fill:#ffce54"
					inkscape:connector-curvature="0"
					id="path74"
					d="m 85.344,31.996 c -5.891,0 -10.664,-4.773 -10.664,-10.664 0,-5.891 4.773,-10.672 10.664,-10.672 5.891,0 10.664,4.781 10.664,10.672 0,5.891 -4.774,10.664 -10.664,10.664 z"/>
			<path
					style="fill:#ffce54"
					inkscape:connector-curvature="0"
					id="path76"
					d="m 42.68,31.996 c -5.891,0 -10.672,-4.773 -10.672,-10.664 0,-5.891 4.781,-10.672 10.672,-10.672 5.891,0 10.664,4.781 10.664,10.672 0,5.891 -4.774,10.664 -10.664,10.664 z"/>
		</g>
		<g
				id="g102">
			<path
					style="fill:#ffce54"
					inkscape:connector-curvature="0"
					id="path80"
					d="m 21.336,42.66 c 0,5.891 -4.781,10.672 -10.672,10.672 C 4.773,53.332 0,48.551 0,42.66 0,36.769 4.773,31.996 10.664,31.996 c 5.891,0 10.672,4.774 10.672,10.664 z"/>
			<path
					style="fill:#ffce54"
					inkscape:connector-curvature="0"
					id="path82"
					d="m 21.336,85.332 c 0,5.891 -4.781,10.664 -10.672,10.664 C 4.773,95.996 0,91.223 0,85.332 0,79.441 4.773,74.66 10.664,74.66 c 5.891,0 10.672,4.781 10.672,10.672 z"/>
			<path
					style="fill:#ffce54"
					inkscape:connector-curvature="0"
					id="path84"
					d="m 21.336,127.996 c 0,5.891 -4.781,10.664 -10.672,10.664 C 4.773,138.66 0,133.887 0,127.996 c 0,-5.891 4.773,-10.664 10.664,-10.664 5.891,0 10.672,4.773 10.672,10.664 z"/>
			<path
					style="fill:#ffce54"
					inkscape:connector-curvature="0"
					id="path86"
					d="m 21.336,170.66 c 0,5.891 -4.781,10.672 -10.672,10.672 C 4.773,181.332 0,176.551 0,170.66 c 0,-5.891 4.773,-10.664 10.664,-10.664 5.891,0 10.672,4.774 10.672,10.664 z"/>
			<path
					style="fill:#ffce54"
					inkscape:connector-curvature="0"
					id="path88"
					d="m 21.336,213.332 c 0,5.891 -4.781,10.664 -10.672,10.664 C 4.773,223.996 0,219.223 0,213.332 0,207.441 4.773,202.66 10.664,202.66 c 5.891,0 10.672,4.781 10.672,10.672 z"/>
			<path
					style="fill:#ffce54"
					inkscape:connector-curvature="0"
					id="path90"
					d="m 21.336,255.996 c 0,5.891 -4.781,10.664 -10.672,10.664 C 4.773,266.66 0,261.887 0,255.996 c 0,-5.891 4.773,-10.664 10.664,-10.664 5.891,0 10.672,4.773 10.672,10.664 z"/>
			<path
					style="fill:#ffce54"
					inkscape:connector-curvature="0"
					id="path92"
					d="m 21.336,298.652 c 0,5.906 -4.781,10.688 -10.672,10.688 C 4.773,309.34 0,304.559 0,298.652 c 0,-5.875 4.773,-10.656 10.664,-10.656 5.891,0 10.672,4.781 10.672,10.656 z"/>
			<path
					style="fill:#ffce54"
					inkscape:connector-curvature="0"
					id="path94"
					d="m 21.336,341.34 c 0,5.875 -4.781,10.656 -10.672,10.656 C 4.773,351.996 0,347.215 0,341.34 c 0,-5.906 4.773,-10.688 10.664,-10.688 5.891,0 10.672,4.782 10.672,10.688 z"/>
			<path
					style="fill:#ffce54"
					inkscape:connector-curvature="0"
					id="path96"
					d="m 21.336,383.996 c 0,5.891 -4.781,10.656 -10.672,10.656 C 4.773,394.652 0,389.887 0,383.996 0,378.105 4.773,373.34 10.664,373.34 c 5.891,0 10.672,4.765 10.672,10.656 z"/>
			<path
					style="fill:#ffce54"
					inkscape:connector-curvature="0"
					id="path98"
					d="m 21.336,426.652 c 0,5.906 -4.781,10.688 -10.672,10.688 C 4.773,437.34 0,432.559 0,426.652 c 0,-5.875 4.773,-10.656 10.664,-10.656 5.891,0 10.672,4.781 10.672,10.656 z"/>
			<path
					style="fill:#ffce54"
					inkscape:connector-curvature="0"
					id="path100"
					d="m 21.336,469.34 c 0,5.875 -4.781,10.656 -10.672,10.656 C 4.773,479.996 0,475.215 0,469.34 c 0,-5.906 4.773,-10.688 10.664,-10.688 5.891,0 10.672,4.782 10.672,10.688 z"/>
		</g>
	</g>
	<rect
			style="fill:#a0d468;stroke-width:0.07812423"
			id="rect106"
			height="34.999657"
			width="36.665268"
			y="2.4998574"
			x="1.6670527"/>
	<polygon
			style="fill:#434a54"
			id="polygon108"
			points="21.336,426.652 21.336,479.996 51.109,479.996 82.211,472.465 28.875,419.121 "
			transform="matrix(0.07812424,0,0,0.07812424,1.9456e-4,1.9456e-4)"/>
	<path
			style="fill:#8cc153;stroke-width:0.07812423"
			inkscape:connector-curvature="0"
			id="path110"
			d="M 0.83331056,1.6667406 V 38.332007 H 39.167311 V 1.6667406 Z M 37.499828,36.667023 H 2.5001696 V 3.3329741 H 37.499828 Z"/>
	<g
			id="g114"
			transform="matrix(0.07812424,0,0,0.07812424,1.9456e-4,1.9456e-4)">
		<path
				style="fill:#ccd1d9"
				inkscape:connector-curvature="0"
				id="path112"
				d="M 448,170.66 V 85.332 C 448,73.551 438.438,63.996 426.656,63.996 H 85.359 c -11.789,0 -21.336,9.555 -21.336,21.336 v 85.328 l -10.688,21.336 v 128 l 10.688,21.344 v 85.312 c 0,11.781 9.547,21.344 21.336,21.344 h 96 L 202.687,437.34 H 320 l 21.344,10.656 h 85.312 c 11.781,0 21.344,-9.562 21.344,-21.344 V 341.34 l 10.688,-21.344 v -128 z"/>
	</g>
	<path
			style="fill:#8cc153;stroke-width:0.07812423"
			inkscape:connector-curvature="0"
			id="path116"
			d="m 38.33232,9.1666671 c 0,0.4602298 -0.37234,0.8331168 -0.832492,0.8331168 -0.460152,0 -0.832492,-0.372887 -0.832492,-0.8331168 0,-0.4602299 0.372262,-0.8337419 0.832492,-0.8337419 0.46023,0 0.832492,0.373512 0.832492,0.8337419 z"/>
	<path
			style="fill:#8cc153;stroke-width:0.07812423"
			inkscape:connector-curvature="0"
			id="path118"
			d="m 3.3332866,9.1666671 c 0,0.4602298 -0.372887,0.8331168 -0.833117,0.8331168 -0.46023,0 -0.833117,-0.372887 -0.833117,-0.8331168 0,-0.4602299 0.372887,-0.8337419 0.833117,-0.8337419 0.46023,0 0.833117,0.373512 0.833117,0.8337419 z"/>
	<path
			style="fill:#8cc153;stroke-width:0.07812423"
			inkscape:connector-curvature="0"
			id="path120"
			d="m 17.500023,35.832032 c 0,0.461401 -0.372887,0.834991 -0.833116,0.834991 -0.46023,0 -0.833742,-0.373512 -0.833742,-0.834991 0,-0.45898 0.373512,-0.832492 0.833742,-0.832492 0.460229,0 0.833116,0.373512 0.833116,0.832492 z"/>
	<path
			style="fill:#8cc153;stroke-width:0.07812423"
			inkscape:connector-curvature="0"
			id="path122"
			d="m 20.833116,35.832032 c 0,0.461401 -0.372887,0.834991 -0.833117,0.834991 -0.46023,0 -0.833117,-0.373512 -0.833117,-0.834991 0,-0.45898 0.372887,-0.832492 0.833117,-0.832492 0.46023,0 0.833117,0.373512 0.833117,0.832492 z"/>
	<path
			style="fill:#8cc153;stroke-width:0.07812423"
			inkscape:connector-curvature="0"
			id="path124"
			d="m 24.167458,35.832032 c 0,0.461401 -0.373512,0.834991 -0.834992,0.834991 -0.458979,0 -0.832491,-0.373512 -0.832491,-0.834991 0,-0.45898 0.373512,-0.832492 0.832491,-0.832492 0.461402,0 0.834992,0.373512 0.834992,0.832492 z"/>
	<g
			id="g136"
			transform="matrix(0.14202664,0,0,0.14202664,-16.362082,-16.791442)">
		<path
				style="fill:#434a54"
				inkscape:connector-curvature="0"
				id="path130"
				d="m 187.383,285.715 c -10.945,0 -17.891,-8.938 -17.891,-22.938 0,-11.336 5.039,-23.039 18.086,-23.039 7.992,0 13.516,4.375 15.039,11.805 h 14.562 c -1.141,-14 -13.039,-24.281 -29.32,-24.281 -20.75,0 -33.32,15.711 -33.32,35.414 0,21.414 13.047,35.602 32.75,35.602 18.562,0 28.844,-11.219 30.367,-27.789 h -14.75 c -1.242,9.898 -6.57,15.226 -15.523,15.226 z"/>
		<path
				style="fill:#434a54"
				inkscape:connector-curvature="0"
				id="path132"
				d="m 261.961,228.887 h -29.227 v 67.781 h 14.758 v -24.375 h 15.234 c 13.617,0 24.086,-6.852 24.086,-21.609 0,-14.946 -10.187,-21.797 -24.851,-21.797 z m -1.234,31.695 h -13.234 v -19.516 h 13.328 c 6.57,0 11.523,2.57 11.523,9.805 0,7.524 -4.953,9.711 -11.617,9.711 z"/>
		<path
				style="fill:#434a54"
				inkscape:connector-curvature="0"
				id="path134"
				d="m 342.719,228.887 v 40.555 c 0,9.992 -2.375,16.273 -13.812,16.273 -11.609,0 -14.562,-5.906 -14.562,-16.273 V 228.887 H 299.5 v 40.555 c 0,19.32 9.031,28.555 29.219,28.555 19.812,0 28.844,-9.031 28.844,-28.367 v -40.742 h -14.844 z"/>
	</g>
	<path
			style="fill:#e6e9ed;fill-opacity:1;stroke-width:0.05236015"
			d="m 18.753774,18.757191 v -1.41981 l 1.217374,0.02547 c 1.357363,0.0284 1.630314,0.07919 1.954239,0.3636 0.25458,0.223524 0.397945,0.528314 0.428695,0.911394 0.04038,0.50305 -0.06259,0.833877 -0.348579,1.119859 -0.370969,0.370969 -0.608848,0.419293 -2.06397,0.419293 h -1.187759 z"
			id="path220"
			inkscape:connector-curvature="0"/>
	<path
			style="fill:#e6e9ed;fill-opacity:1;stroke-width:0.02644628"
			d="m 18.756516,18.758712 v -1.414169 l 0.773554,0.01373 c 0.951199,0.01688 1.616579,0.0538 1.848094,0.102539 0.471001,0.09915 0.818322,0.450663 0.93523,0.946509 0.04636,0.196636 0.05148,0.570029 0.0105,0.765912 -0.04215,0.201449 -0.169504,0.425783 -0.336564,0.592843 -0.363274,0.363274 -0.601861,0.406748 -2.232462,0.406784 l -0.998347,2.2e-5 z"
			id="path224"
			inkscape:connector-curvature="0"/>
	<path
			style="fill:#e6e9ed;fill-opacity:1;stroke-width:0.05289256"
			d="M 6.075771,34.868815 C 5.756338,34.75577 5.3104917,34.330209 5.1580041,33.992806 L 5.0320248,33.714056 5.0055785,30.143808 4.9791323,26.57356 4.5692149,25.76761 4.1592975,24.961659 V 20.014882 15.068106 L 4.5692149,14.262155 4.9791323,13.456205 5.0055785,9.8595105 5.0320248,6.2628163 5.1790546,5.9634156 C 5.3483709,5.6186323 5.6531345,5.3216 6.0040629,5.1593361 L 6.2485537,5.0462874 H 20.00062 33.752686 l 0.2994,0.1470298 c 0.344784,0.1693163 0.641816,0.4740799 0.80408,0.8250083 0.111075,0.2402216 0.113511,0.307294 0.139495,3.841185 l 0.02645,3.5966945 0.409917,0.80595 0.409917,0.805951 v 4.946776 4.946777 l -0.409917,0.805951 -0.409917,0.80595 -0.02645,3.570248 -0.02645,3.570248 -0.12598,0.27875 c -0.158201,0.350048 -0.600104,0.763659 -0.939416,0.879274 -0.219075,0.07465 -0.674897,0.08495 -3.75791,0.08495 h -3.50859 L 25.845248,34.560337 25.053181,34.163643 H 20.42376 15.794339 l -0.792066,0.396694 -0.792067,0.396694 -3.95438,-0.0042 c -3.3841989,-0.0036 -3.9869197,-0.01569 -4.180055,-0.08404 z m 5.462039,-9.428762 c 1.696089,-0.434587 2.732793,-1.670049 3.010061,-3.587154 l 0.03251,-0.224793 H 13.50756 12.434739 l -0.06052,0.318442 c -0.07888,0.415075 -0.324937,0.935063 -0.571729,1.208232 -0.108201,0.119766 -0.352952,0.294664 -0.543891,0.388663 -0.302942,0.149138 -0.412457,0.173529 -0.859786,0.191497 C 9.5677942,23.768318 9.027588,23.553437 8.5182009,22.986876 8.0154531,22.427699 7.8065779,21.803754 7.7694383,20.750197 7.7374803,19.843631 7.8274912,19.317963 8.1217689,18.692568 8.5881484,17.701425 9.3625028,17.2392 10.44723,17.304461 c 0.93307,0.05614 1.57929,0.517805 1.853192,1.323945 l 0.09369,0.275733 1.058227,0.01429 1.058226,0.01429 -0.04588,-0.29256 c -0.197206,-1.257569 -1.110724,-2.357625 -2.360996,-2.843107 -0.587776,-0.228234 -1.06552,-0.311754 -1.782406,-0.311604 -1.3961861,3.17e-4 -2.4653368,0.423879 -3.3586777,1.330676 -0.9136922,0.927454 -1.3752066,2.17484 -1.3752066,3.716921 0,1.594186 0.4274217,2.781829 1.342815,3.731172 0.6896892,0.715268 1.5072493,1.115364 2.6505735,1.29713 0.3665888,0.05828 1.5400188,-0.01445 1.9570248,-0.1213 z m 20.326577,-0.0512 c 1.364598,-0.344467 2.143159,-1.154712 2.454309,-2.554186 0.102664,-0.461757 0.111017,-0.699796 0.133752,-3.811524 l 0.02425,-3.319008 H 33.38742 32.298141 l -10e-4,3.080991 c -6.08e-4,1.783122 -0.02349,3.236268 -0.05432,3.449599 -0.111788,0.773527 -0.453014,1.223961 -1.068933,1.41104 -0.306535,0.09311 -0.463303,0.107213 -0.98221,0.08838 -0.51965,-0.01886 -0.66354,-0.04368 -0.908368,-0.156657 -0.37158,-0.171472 -0.657871,-0.468581 -0.807539,-0.838054 -0.116812,-0.288364 -0.118365,-0.327587 -0.144528,-3.650174 l -0.02645,-3.358678 -1.073908,-0.01433 -1.073909,-0.01433 0.01811,3.425898 c 0.01768,3.342782 0.02095,3.436163 0.135026,3.849038 0.310254,1.122914 0.900206,1.826362 1.858127,2.215601 0.293578,0.119291 0.840504,0.258368 1.247293,0.317172 0.08727,0.01262 0.575207,0.01553 1.084297,0.0065 0.723461,-0.01286 1.021494,-0.04066 1.364594,-0.127265 z m -13.05385,-1.746014 v -1.740634 l 1.520661,-0.02387 c 1.196719,-0.01878 1.583892,-0.04229 1.817482,-0.110345 1.195389,-0.348276 1.902958,-1.051277 2.16378,-2.149809 0.03799,-0.16 0.06863,-0.528925 0.0681,-0.819834 -0.0028,-1.527153 -0.726099,-2.500788 -2.185764,-2.942246 -0.383119,-0.11587 -0.477781,-0.120335 -2.947896,-0.139061 l -2.552066,-0.01935 v 4.84289 4.842889 h 1.057851 1.057851 z"
			id="path228"
			inkscape:connector-curvature="0"/>
	<path
			style="fill:#000000;fill-opacity:1;stroke-width:0.05289256"
			d="M 9.2757976,25.46208 C 7.3866581,25.103605 6.0990039,23.738119 5.7137805,21.684757 5.5944907,21.048905 5.6066258,19.897298 5.7392505,19.267671 6.1476366,17.328887 7.504368,15.947867 9.3486397,15.593666 c 0.5632398,-0.108173 1.5843663,-0.08394 2.1341383,0.05064 1.603785,0.392601 2.74454,1.586332 2.957158,3.094486 l 0.02889,0.204901 -0.196085,-0.03242 c -0.107847,-0.01783 -0.565375,-0.03268 -1.016728,-0.033 l -0.820643,-5.82e-4 -0.09849,-0.277686 c -0.307036,-0.865676 -1.067331,-1.361983 -2.086427,-1.361983 -0.9393794,0 -1.7413218,0.52091 -2.1578492,1.401653 -0.3017245,0.637993 -0.3625324,0.957162 -0.3627746,1.904132 -1.851e-4,0.726961 0.016975,0.905679 0.1217155,1.267564 0.3080164,1.064219 0.963974,1.744898 1.868458,1.938875 0.4357273,0.09345 1.1392063,0.03352 1.4896003,-0.126898 0.607446,-0.278098 1.052887,-0.88667 1.203458,-1.644193 l 0.06978,-0.35105 h 1.024942 1.024943 l -0.03473,0.251239 c -0.08228,0.595116 -0.330159,1.362642 -0.567986,1.758678 -0.524966,0.87419 -1.351042,1.489141 -2.352576,1.751316 -0.551271,0.144308 -1.7284165,0.181511 -2.3016275,0.07274 z"
			id="path232"
			inkscape:connector-curvature="0"/>
	<path
			style="fill:#000000;fill-opacity:1;stroke-width:0.05289256"
			d="m 16.694835,20.541004 v -4.78958 l 2.552066,0.01837 c 2.823899,0.02032 2.794541,0.01717 3.572624,0.384128 0.928091,0.437709 1.428348,1.238421 1.519966,2.432865 0.09653,1.258443 -0.502796,2.389749 -1.524257,2.877248 -0.662387,0.316128 -0.822479,0.339252 -2.510482,0.362614 l -1.547107,0.02141 v 1.741264 1.741264 H 17.72624 16.694835 Z m 4.809591,-0.412872 c 0.355588,-0.134839 0.56236,-0.319974 0.72216,-0.646593 0.314124,-0.642047 0.125819,-1.495014 -0.408948,-1.852414 -0.135186,-0.09035 -0.349401,-0.182444 -0.476033,-0.204658 -0.251605,-0.04414 -2.53296,-0.127209 -2.597183,-0.09457 -0.04835,0.02457 -0.05356,2.71949 -0.0055,2.844732 0.03106,0.08093 0.148104,0.08693 1.282644,0.06572 0.99899,-0.01867 1.295308,-0.0411 1.482856,-0.112213 z"
			id="path234"
			inkscape:connector-curvature="0"/>
	<path
			style="fill:#000000;fill-opacity:1;stroke-width:0.05289256"
			d="M 29.057616,25.408545 C 28.169332,25.241378 27.371592,24.797939 26.943993,24.233648 26.70499,23.918241 26.502671,23.487176 26.357066,22.983126 26.253291,22.623882 26.247437,22.449581 26.229393,19.181825 l -0.01891,-3.424794 h 1.032027 1.032027 l 0.01511,3.319008 c 0.01492,3.2776 0.01657,3.322872 0.132056,3.628671 0.156369,0.414042 0.337273,0.639149 0.663263,0.82533 0.353656,0.201981 0.855956,0.288549 1.475474,0.254286 0.752562,-0.04162 1.185802,-0.251555 1.450207,-0.702727 0.3045,-0.519591 0.303846,-0.511462 0.326612,-4.058452 l 0.02096,-3.266116 h 1.027812 1.027811 l -9.15e-4,2.975207 c -9.52e-4,3.081645 -0.03158,3.707357 -0.214151,4.374475 -0.316808,1.157626 -1.088069,1.904055 -2.305689,2.231456 -0.549912,0.147863 -2.205385,0.188951 -2.835471,0.07038 z"
			id="path236"
			inkscape:connector-curvature="0"/></svg>